<svg width="25" height="25" viewBox="0 0 25 25" fill="none" xmlns="http://www.w3.org/2000/svg">
<path d="M12.3281 14.9531L3.14063 24.1406C2.79688 24.4844 2.35938 24.6563 1.82813 24.6563C1.29688 24.6563 0.859375 24.4844 0.515625 24.1406C0.171875 23.7969 0 23.3594 0 22.8281C0 22.2969 0.171875 21.8594 0.515625 21.5156L9.70313 12.3281L0.515625 3.14063C0.171875 2.79688 0 2.35938 0 1.82813C0 1.29688 0.171875 0.859375 0.515625 0.515625C0.859375 0.171875 1.29688 0 1.82813 0C2.35938 0 2.79688 0.171875 3.14063 0.515625L12.3281 9.70313L21.5156 0.515625C21.8594 0.171875 22.2969 0 22.8281 0C23.3594 0 23.7969 0.171875 24.1406 0.515625C24.4844 0.859375 24.6563 1.29688 24.6563 1.82813C24.6563 2.35938 24.4844 2.79688 24.1406 3.14063L14.9531 12.3281L24.1406 21.5156C24.4844 21.8594 24.6563 22.2969 24.6563 22.8281C24.6563 23.3594 24.4844 23.7969 24.1406 24.1406C23.7969 24.4844 23.3594 24.6563 22.8281 24.6563C22.2969 24.6563 21.8594 24.4844 21.5156 24.1406L12.3281 14.9531Z" fill="#1C1C1C"/>
</svg>
