<svg width="37" height="36" viewBox="0 0 37 36" fill="none" xmlns="http://www.w3.org/2000/svg">
<path d="M4.16667 35.5C3.15833 35.5 2.29514 35.141 1.57708 34.4229C0.859028 33.7049 0.5 32.8417 0.5 31.8334V6.16669C0.5 5.15835 0.859028 4.29516 1.57708 3.5771C2.29514 2.85905 3.15833 2.50002 4.16667 2.50002H11.5C12.0194 2.50002 12.4549 2.67571 12.8063 3.0271C13.1576 3.37849 13.3333 3.81391 13.3333 4.33335C13.3333 4.8528 13.1576 5.28821 12.8063 5.6396C12.4549 5.99099 12.0194 6.16669 11.5 6.16669H4.16667V31.8334H29.8333V25.6917C29.8333 25.1722 30.009 24.7368 30.3604 24.3854C30.7118 24.034 31.1472 23.8584 31.6667 23.8584C32.1861 23.8584 32.6215 24.034 32.9729 24.3854C33.3243 24.7368 33.5 25.1722 33.5 25.6917V31.8334C33.5 32.8417 33.141 33.7049 32.4229 34.4229C31.7049 35.141 30.8417 35.5 29.8333 35.5H4.16667ZM15.625 26.3334L20.3917 19.9625C20.575 19.7181 20.8194 19.5959 21.125 19.5959C21.4306 19.5959 21.675 19.7181 21.8583 19.9625L26.9 26.7C27.1444 27.0056 27.175 27.3264 26.9917 27.6625C26.8083 27.9986 26.5333 28.1667 26.1667 28.1667H7.83333C7.46667 28.1667 7.19167 27.9986 7.00833 27.6625C6.825 27.3264 6.85556 27.0056 7.1 26.7L10.7667 21.7959C10.95 21.5514 11.1944 21.4292 11.5 21.4292C11.8056 21.4292 12.05 21.5514 12.2333 21.7959L15.625 26.3334ZM24.425 17.1667C22.1639 17.1667 20.2389 16.3646 18.65 14.7604C17.0611 13.1563 16.2667 11.2084 16.2667 8.91669C16.2667 6.62502 17.0688 4.6771 18.6729 3.07294C20.2771 1.46877 22.225 0.666687 24.5167 0.666687C26.8083 0.666687 28.7563 1.46877 30.3604 3.07294C31.9646 4.6771 32.7667 6.62502 32.7667 8.91669C32.7667 9.74169 32.6444 10.5361 32.4 11.3C32.1556 12.0639 31.85 12.7667 31.4833 13.4084L35.7917 17.7167C36.1278 18.0528 36.2958 18.4806 36.2958 19C36.2958 19.5195 36.1278 19.9472 35.7917 20.2834C35.4556 20.6195 35.0278 20.7875 34.5083 20.7875C33.9889 20.7875 33.5611 20.6195 33.225 20.2834L28.825 15.8834C28.1833 16.3111 27.4958 16.632 26.7625 16.8459C26.0292 17.0597 25.25 17.1667 24.425 17.1667ZM24.5167 13.5C25.8 13.5 26.8847 13.057 27.7708 12.1709C28.6569 11.2847 29.1 10.2 29.1 8.91669C29.1 7.63335 28.6569 6.54863 27.7708 5.66252C26.8847 4.77641 25.8 4.33335 24.5167 4.33335C23.2333 4.33335 22.1486 4.77641 21.2625 5.66252C20.3764 6.54863 19.9333 7.63335 19.9333 8.91669C19.9333 10.2 20.3764 11.2847 21.2625 12.1709C22.1486 13.057 23.2333 13.5 24.5167 13.5Z" fill="#FFFAFB"/>
</svg>
