<svg width="326" height="38" viewBox="0 0 326 38" fill="none" xmlns="http://www.w3.org/2000/svg">
<path d="M73.582 3.96436H94.7956V8.15947H78.2161V16.4862H89.5872V20.6813H78.2161V33.796H73.582V3.96436Z" fill="#1C1C1C"/>
<path d="M91.6367 23.1896C91.6367 16.8566 96.4518 11.9199 102.906 11.9199C109.361 11.9199 114.176 16.8566 114.176 23.1896C114.176 29.5226 109.358 34.4594 102.906 34.4594C96.4549 34.4594 91.6367 29.5226 91.6367 23.1896V23.1896ZM102.906 30.2673C106.906 30.2673 109.799 27.18 109.799 23.1896C109.799 19.1993 106.903 16.1119 102.906 16.1119C98.9096 16.1119 96.0138 19.1993 96.0138 23.1896C96.0138 27.18 98.9096 30.2673 102.906 30.2673Z" fill="#1C1C1C"/>
<path d="M121.203 12.582V24.6605C121.203 28.2103 123.126 30.2633 126.375 30.2633C129.624 30.2633 132.341 28.2103 132.341 24.6605V12.582H136.716V34.0129H132.32V31.3114C131.614 32.4055 129.603 34.4585 125.69 34.4585C119.901 34.4585 116.828 30.7981 116.828 25.5948V12.582H121.203Z" fill="#1C1C1C"/>
<path d="M140.693 33.7964V12.3656H145.235V15.2914C146.467 12.9464 148.543 11.9199 150.94 11.9199C152.651 11.9199 153.952 12.4547 153.952 12.4547L153.471 16.5177C153.22 16.4286 152.24 16.026 150.801 16.026C148.383 16.026 145.235 17.2769 145.235 22.1206V33.7964H140.693V33.7964Z" fill="#1C1C1C"/>
<path d="M163.901 3.96436H168.552V18.7925L182.333 3.96436H188.335L177.035 16.1341L189.086 33.796H183.412L173.753 19.2521L168.546 24.8108V33.796H163.895V3.96436H163.901Z" fill="#1C1C1C"/>
<path d="M191.738 33.7961V16.5601H196.379V33.7961H191.738V33.7961Z" fill="#1C1C1C"/>
<path d="M198.367 16.4865V12.769H202.278V5.95264H206.616V12.769H213.47V16.4865H206.66V27.1118C206.66 29.3697 207.987 30.4971 210.187 30.4971C211.22 30.4971 212.637 30.2107 213.693 29.7658L214.277 33.529C213.198 34.0836 211.288 34.4584 209.559 34.4584C205.041 34.4584 202.21 31.9567 202.21 27.642V16.4865H198.367V16.4865Z" fill="#1C1C1C"/>
<path d="M214.941 23.1679C214.941 16.8349 219.99 11.9199 226.438 11.9199C230.641 11.9199 234.156 14.1509 236.155 17.8465L232.754 20.1891C231.419 17.6882 229.018 16.1088 226.349 16.1088C222.234 16.1088 219.387 19.1962 219.387 23.1648C219.387 27.1334 222.301 30.2642 226.26 30.2642C229.04 30.2642 231.351 28.778 232.821 26.2088L236.134 28.5763C234.177 32.1384 230.574 34.4594 226.26 34.4594C219.788 34.4594 214.941 29.4792 214.941 23.1679V23.1679Z" fill="#1C1C1C"/>
<path d="M239.471 33.7931V2.63867H243.909V15.229C244.621 14.1445 246.649 12.1096 250.486 12.1096C256.259 12.1096 259.358 15.7377 259.358 20.8951V33.7961H254.945V21.8242C254.945 18.3057 253.005 16.2708 249.795 16.2708C246.585 16.2708 243.887 18.3057 243.887 21.8242V33.7961H239.474L239.471 33.7931Z" fill="#1C1C1C"/>
<path d="M273.31 11.9199C279.318 11.9199 283.223 16.6084 283.223 22.4015C283.223 23.0779 283.178 23.7761 283.051 24.4742H267.067C267.259 27.7199 269.899 30.2673 273.461 30.2673C276.037 30.2673 278.095 29.1193 279.64 26.5718L282.774 28.961C280.866 32.5666 277.109 34.4594 273.464 34.4594C267.241 34.4594 262.672 29.6375 262.672 23.2114C262.672 16.7853 267.07 11.9199 273.313 11.9199H273.31ZM278.91 21.1386C278.653 18.0947 276.229 15.9537 273.269 15.9537C270.115 15.9537 267.714 18.0947 267.176 21.1386H278.91Z" fill="#1C1C1C"/>
<path d="M287.045 33.7934V12.3655H291.309V15.0666C291.994 13.9727 293.944 11.9199 297.633 11.9199C303.292 11.9199 306.27 15.5798 306.27 20.7824V33.7964H302.026V21.7196C302.026 18.1704 300.161 16.1176 296.969 16.1176C293.776 16.1176 291.288 18.1704 291.288 21.7196V33.7964H287.045V33.7934Z" fill="#1C1C1C"/>
<path d="M311.949 26.7704C313.119 28.8897 315.113 30.3542 317.761 30.3542C319.994 30.3542 321.662 29.4296 321.662 27.965C321.662 26.3639 320.382 25.8674 317.325 25.1476C312.859 24.1112 309.671 22.6466 309.671 18.3646C309.671 14.4426 313.119 11.9199 317.37 11.9199C321.25 11.9199 324.221 14.0175 325.609 16.3819L322.725 18.9511C321.597 17.2817 319.821 15.9971 317.37 15.9971C315.31 15.9971 313.922 16.9001 313.922 18.2964C313.922 19.9409 315.462 20.3939 318.519 21.1603C323.05 22.3084 326 23.8412 326 27.9681C326 32.0949 322.185 34.4594 317.761 34.4594C313.707 34.4594 310.367 32.52 308.764 29.4544L311.952 26.7735L311.949 26.7704Z" fill="#1C1C1C"/>
<path d="M191.738 11.9199H187.098V16.5604H191.738V11.9199Z" fill="#1C1C1C"/>
<path d="M28.2858 22.9546H14.1426V37.0978H28.2858V22.9546V22.9546Z" fill="#1C1C1C"/>
<path d="M28.2864 0H14.1432L0 22.9546H14.1432L28.2864 0Z" fill="#1C1C1C"/>
<path d="M42.4303 22.9546L56.6312 0H42.4881L28.2871 22.9546L42.3385 37.0978H56.4817L42.4303 22.9546V22.9546Z" fill="#1C1C1C"/>
</svg>
