<svg width="367" height="313" viewBox="0 0 367 313" fill="none" xmlns="http://www.w3.org/2000/svg">
<path fill-rule="evenodd" clip-rule="evenodd" d="M148.332 54.4923C112.635 69.0017 115.981 105.22 99.5805 132.873C84.68 157.997 50.8535 180.957 59.0973 204.949C68.4853 232.273 101.665 252.671 140.664 252.443C177.041 252.231 202.888 223.282 233.191 203.933C265.928 183.031 313.398 168.303 319.384 138.329C325.749 106.461 293.035 83.4638 260.443 67.4893C228.608 51.8863 186.981 38.7831 148.332 54.4923Z" stroke="#FD6149" stroke-width="3" stroke-linecap="round" stroke-dasharray="9 16"/>
<path fill-rule="evenodd" clip-rule="evenodd" d="M220.627 48.7279C180.512 34.0215 156.256 66.242 122.178 76.7101C91.217 86.2205 46.3362 79.8446 35.2138 105.683C22.5476 135.107 34.5708 176.586 66.7485 205.476C96.763 232.423 139.559 227.934 178.855 234.647C221.308 241.899 271.249 265.204 298.51 245.067C327.494 223.657 317.79 180.392 302.95 142.981C288.455 106.44 264.06 64.6503 220.627 48.7279Z" fill="#E32002"/>
<path d="M131.455 150.257L132.64 150.585C132.289 152.991 131.74 155.047 130.993 156.753C130.247 158.502 129.281 159.858 128.095 160.821C127.173 161.564 125.966 162.177 124.472 162.658C123.023 163.139 121.399 163.38 119.598 163.38C117.183 163.38 114.812 163.008 112.484 162.264C110.201 161.521 107.874 160.602 105.502 159.508C103.131 158.459 100.628 157.431 97.9933 156.424C97.6859 156.337 97.3785 156.228 97.0711 156.096C96.8077 156.009 96.5881 155.965 96.4124 155.965C95.5781 156.359 94.6559 156.687 93.646 156.949C92.6799 157.212 91.7577 157.343 90.8795 157.343C90.0012 157.343 89.2547 157.212 88.6399 156.949C88.0691 156.687 87.7836 156.25 87.7836 155.637C87.7836 154.456 88.9912 153.866 91.4064 153.866C92.9434 153.866 94.612 154.172 96.4124 154.784C98.0372 154.347 99.4204 153.844 100.562 153.275C101.748 152.75 102.955 152.247 104.185 151.766C105.458 151.285 106.995 150.979 108.796 150.847L108.862 151.897C107.456 152.028 106.249 152.269 105.239 152.619C104.273 153.013 103.285 153.428 102.275 153.866C101.265 154.303 100.079 154.719 98.7178 155.112C101.836 155.331 104.734 155.55 107.413 155.768C110.091 156.031 112.572 156.184 114.856 156.228C117.139 156.315 119.203 156.228 121.047 155.965C123.77 155.659 125.922 155.068 127.502 154.194C129.083 153.319 130.401 152.006 131.455 150.257ZM107.281 103.671C111.935 103.671 115.997 104.611 119.466 106.492C122.979 108.373 125.702 111.085 127.634 114.628C129.566 118.128 130.532 122.393 130.532 127.423C130.532 132.322 129.544 136.609 127.568 140.283C125.592 143.958 122.826 146.823 119.269 148.879C115.756 150.935 111.738 151.963 107.215 151.963C102.56 151.963 98.4763 151.022 94.9633 149.141C91.4942 147.26 88.7936 144.548 86.8615 141.005C84.9293 137.462 83.9633 133.197 83.9633 128.211C83.9633 123.311 84.9513 119.025 86.9273 115.35C88.9473 111.676 91.6918 108.811 95.1609 106.755C98.6739 104.699 102.714 103.671 107.281 103.671ZM107.017 104.852C104.558 104.852 102.406 105.836 100.562 107.805C98.7618 109.773 97.3566 112.485 96.3466 115.941C95.3805 119.396 94.8975 123.399 94.8975 127.948C94.8975 132.585 95.4464 136.631 96.5442 140.087C97.6859 143.499 99.2009 146.145 101.089 148.026C103.021 149.863 105.151 150.782 107.478 150.782C109.937 150.782 112.067 149.797 113.868 147.829C115.712 145.861 117.117 143.149 118.083 139.693C119.093 136.194 119.598 132.191 119.598 127.686C119.598 123.005 119.027 118.959 117.886 115.547C116.788 112.135 115.273 109.511 113.341 107.673C111.452 105.792 109.345 104.852 107.017 104.852Z" fill="white"/>
<path d="M167.746 116.4V143.892C167.746 145.861 168.054 147.326 168.668 148.288C169.283 149.207 170.381 149.666 171.962 149.666V151.044C170.6 150.913 169.239 150.847 167.878 150.847C166.034 150.847 164.321 150.913 162.74 151.044C161.159 151.175 159.666 151.416 158.261 151.766V145.861C157.207 148.048 155.736 149.623 153.848 150.585C152.004 151.503 149.94 151.963 147.656 151.963C145.812 151.963 144.319 151.722 143.177 151.241C142.035 150.76 141.135 150.147 140.477 149.404C139.73 148.573 139.203 147.479 138.896 146.123C138.588 144.767 138.435 143.017 138.435 140.874V124.274C138.435 122.305 138.127 120.862 137.512 119.943C136.942 118.981 135.844 118.5 134.219 118.5V117.122C135.624 117.253 136.985 117.319 138.303 117.319C140.147 117.319 141.86 117.253 143.441 117.122C145.065 116.947 146.558 116.706 147.92 116.4V143.564C147.92 144.658 148.008 145.62 148.183 146.451C148.403 147.282 148.798 147.938 149.369 148.42C149.94 148.857 150.774 149.076 151.872 149.076C153.628 149.076 155.121 148.354 156.351 146.91C157.624 145.423 158.261 143.608 158.261 141.465V124.274C158.261 122.305 157.954 120.862 157.339 119.943C156.768 118.981 155.67 118.5 154.045 118.5V117.122C155.451 117.253 156.812 117.319 158.129 117.319C159.974 117.319 161.686 117.253 163.267 117.122C164.892 116.947 166.385 116.706 167.746 116.4Z" fill="white"/>
<path d="M183.452 100.193C185.297 100.193 186.746 100.653 187.8 101.571C188.897 102.446 189.446 103.671 189.446 105.246C189.446 106.82 188.897 108.067 187.8 108.986C186.746 109.861 185.297 110.298 183.452 110.298C181.608 110.298 180.137 109.861 179.039 108.986C177.985 108.067 177.458 106.82 177.458 105.246C177.458 103.671 177.985 102.446 179.039 101.571C180.137 100.653 181.608 100.193 183.452 100.193ZM188.59 116.4V144.942C188.59 146.779 188.897 148.026 189.512 148.682C190.171 149.338 191.269 149.666 192.806 149.666V151.044C192.015 151 190.786 150.957 189.117 150.913C187.448 150.825 185.758 150.782 184.045 150.782C182.332 150.782 180.598 150.825 178.841 150.913C177.085 150.957 175.768 151 174.889 151.044V149.666C176.426 149.666 177.502 149.338 178.117 148.682C178.776 148.026 179.105 146.779 179.105 144.942V124.274C179.105 122.305 178.798 120.862 178.183 119.943C177.612 118.981 176.514 118.5 174.889 118.5V117.122C176.295 117.253 177.656 117.319 178.973 117.319C180.817 117.319 182.53 117.253 184.111 117.122C185.736 116.947 187.229 116.706 188.59 116.4Z" fill="white"/>
<path d="M209.103 99.6685V144.942C209.103 146.779 209.411 148.026 210.026 148.682C210.684 149.338 211.782 149.666 213.319 149.666V151.044C212.485 151 211.233 150.957 209.565 150.913C207.896 150.825 206.205 150.782 204.493 150.782C202.78 150.782 201.046 150.825 199.289 150.913C197.576 150.957 196.281 151 195.403 151.044V149.666C196.94 149.666 198.016 149.338 198.63 148.682C199.289 148.026 199.618 146.779 199.618 144.942V107.542C199.618 105.574 199.311 104.13 198.696 103.212C198.125 102.249 197.028 101.768 195.403 101.768V100.39C196.808 100.521 198.169 100.587 199.487 100.587C201.287 100.587 203 100.521 204.624 100.39C206.249 100.215 207.742 99.9747 209.103 99.6685Z" fill="white"/>
<path d="M229.493 106.361V117.122H237.265V118.434H229.493V144.942C229.493 146.254 229.734 147.195 230.217 147.763C230.701 148.288 231.425 148.551 232.391 148.551C233.182 148.551 233.972 148.267 234.762 147.698C235.553 147.085 236.255 146.058 236.87 144.614L237.99 145.205C237.287 147.173 236.212 148.791 234.762 150.06C233.357 151.328 231.425 151.963 228.966 151.963C227.517 151.963 226.243 151.766 225.146 151.372C224.048 151.022 223.126 150.476 222.379 149.732C221.413 148.77 220.776 147.588 220.469 146.189C220.162 144.745 220.008 142.886 220.008 140.612V118.434H214.475V117.122H220.008V108.461C221.852 108.461 223.543 108.308 225.08 108.001C226.661 107.652 228.132 107.105 229.493 106.361Z" fill="white"/>
<path d="M172.366 162.68C174.044 162.68 175.457 162.92 176.606 163.402C177.754 163.839 178.681 164.452 179.388 165.239C180.183 166.071 180.735 167.187 181.044 168.587C181.353 169.943 181.508 171.672 181.508 173.772V191.363C181.508 193.2 181.861 194.448 182.568 195.104C183.275 195.76 184.467 196.088 186.146 196.088V197.467C185.395 197.423 184.224 197.379 182.634 197.336C181.088 197.248 179.565 197.204 178.063 197.204C176.561 197.204 175.082 197.248 173.624 197.336C172.211 197.379 171.129 197.423 170.378 197.467V196.088C171.836 196.088 172.851 195.76 173.426 195.104C174.044 194.448 174.353 193.2 174.353 191.363V171.934C174.353 170.665 174.265 169.528 174.088 168.521C173.911 167.471 173.492 166.64 172.829 166.027C172.211 165.371 171.217 165.042 169.848 165.042C168.302 165.042 166.911 165.502 165.674 166.421C164.482 167.34 163.51 168.609 162.759 170.228C162.053 171.803 161.699 173.575 161.699 175.544V191.363C161.699 193.2 162.009 194.448 162.627 195.104C163.245 195.76 164.261 196.088 165.674 196.088V197.467C164.968 197.423 163.908 197.379 162.494 197.336C161.081 197.248 159.624 197.204 158.122 197.204C156.62 197.204 155.052 197.248 153.418 197.336C151.784 197.379 150.569 197.423 149.774 197.467V196.088C151.497 196.088 152.711 195.76 153.418 195.104C154.169 194.448 154.544 193.2 154.544 191.363V170.753C154.544 168.784 154.213 167.34 153.551 166.421C152.888 165.458 151.629 164.977 149.774 164.977V163.598C151.188 163.73 152.557 163.795 153.882 163.795C155.384 163.795 156.775 163.73 158.056 163.598C159.381 163.423 160.595 163.183 161.699 162.876V170.031C162.848 167.405 164.371 165.524 166.271 164.386C168.214 163.248 170.246 162.68 172.366 162.68ZM192.307 162.68C193.985 162.68 195.398 162.92 196.547 163.402C197.695 163.839 198.623 164.452 199.329 165.239C200.124 166.071 200.676 167.187 200.986 168.587C201.295 169.943 201.449 171.672 201.449 173.772V191.363C201.449 193.2 201.803 194.448 202.509 195.104C203.26 195.76 204.497 196.088 206.219 196.088V197.467C205.468 197.423 204.298 197.379 202.708 197.336C201.118 197.248 199.55 197.204 198.004 197.204C196.503 197.204 195.023 197.248 193.566 197.336C192.152 197.379 191.07 197.423 190.319 197.467V196.088C191.777 196.088 192.793 195.76 193.367 195.104C193.985 194.448 194.294 193.2 194.294 191.363V171.934C194.294 170.665 194.206 169.528 194.029 168.521C193.853 167.471 193.433 166.64 192.771 166.027C192.108 165.371 191.07 165.042 189.657 165.042C187.36 165.042 185.417 166.071 183.827 168.127C182.281 170.14 181.508 172.634 181.508 175.61L181.243 170.162C182.436 167.274 184.026 165.305 186.013 164.255C188.045 163.205 190.143 162.68 192.307 162.68Z" fill="white"/>
<path d="M225.402 162.68C229.289 162.68 232.336 163.839 234.545 166.158C236.753 168.477 237.857 172.153 237.857 177.185H215.001L214.868 175.938H230.835C230.879 173.794 230.702 171.825 230.305 170.031C229.907 168.193 229.289 166.727 228.45 165.633C227.611 164.539 226.506 163.992 225.137 163.992C223.238 163.992 221.582 164.999 220.168 167.012C218.799 168.981 217.96 172.153 217.651 176.529L217.85 176.857C217.806 177.47 217.761 178.148 217.717 178.892C217.673 179.592 217.651 180.292 217.651 180.992C217.651 184.011 218.115 186.549 219.042 188.606C219.97 190.662 221.184 192.216 222.686 193.266C224.188 194.272 225.711 194.776 227.257 194.776C229.024 194.776 230.724 194.338 232.358 193.463C234.037 192.588 235.472 190.969 236.665 188.606L237.99 189.131C237.46 190.619 236.643 192.085 235.538 193.529C234.434 194.973 233.021 196.154 231.298 197.073C229.576 197.948 227.566 198.386 225.27 198.386C222.178 198.386 219.484 197.707 217.187 196.351C214.891 194.951 213.124 192.96 211.887 190.378C210.651 187.796 210.032 184.733 210.032 181.189C210.032 177.295 210.673 173.969 211.953 171.212C213.234 168.456 215.023 166.355 217.32 164.911C219.661 163.423 222.355 162.68 225.402 162.68Z" fill="white"/>
<path d="M259.179 182.328L254.263 196.285H251.292L257.484 180.182H259.382L259.179 182.328ZM263.291 196.285L258.365 182.328L258.15 180.182H260.06L266.274 196.285H263.291ZM263.054 190.313V192.514H254.105V190.313H263.054Z" fill="white"/>
<path d="M272.996 180.182V196.285H270.159V180.182H272.996Z" fill="white"/>
<path d="M243.365 190.993L-nan -nanL243.365 190.993C244.48 193.293 246.324 195.16 248.61 196.303L248.739 196.367L-nan -nanL248.739 196.367C246.377 197.479 244.476 199.379 243.365 201.742L-nan -nanL243.365 201.742L-nan -nanL243.365 201.742C242.523 199.411 240.748 197.537 238.467 196.569L237.991 196.367L-nan -nanL237.991 196.367C240.298 195.179 242.176 193.3 243.365 190.993L-nan -nanL243.365 190.993Z" fill="#FFFAFB"/>
</svg>
