<svg width="366" height="330" viewBox="0 0 366 330" fill="none" xmlns="http://www.w3.org/2000/svg">
  <path fill-rule="evenodd" clip-rule="evenodd" d="M97.5 116.5C87 133 97.5 134 90.2215 146.824C62.9999 160.5 30.1425 206.11 40.3068 235.692C51.882 269.381 92.7912 294.531 140.876 294.251C185.729 293.989 217.596 258.296 254.959 234.44C295.323 208.667 353.852 190.508 361.233 153.551C369.081 114.259 328.746 85.9038 288.56 66.2077C249.308 46.9697 123 2.00009 97.5 116.5Z" stroke="#FD6149" stroke-width="3" stroke-linecap="round" stroke-dasharray="9 16" class="quiltme-stitching"/>
  <path fill-rule="evenodd" clip-rule="evenodd" d="M233.836 66.2791C193.721 51.5727 169.465 83.7932 135.386 94.2613C104.426 103.772 59.5449 97.3958 48.4226 123.234C35.7564 152.658 47.7796 194.137 79.9573 223.027C109.972 249.974 152.768 245.485 192.064 252.198C234.517 259.45 284.458 282.755 311.719 262.618C340.702 241.208 330.999 197.943 316.159 160.532C301.664 123.991 277.269 82.2015 233.836 66.2791Z" fill="#E32002"/>
  <path d="M144.664 167.809L145.85 168.137C145.498 170.543 144.949 172.599 144.203 174.305C143.456 176.055 142.49 177.411 141.305 178.373C140.383 179.117 139.175 179.729 137.682 180.21C136.233 180.691 134.608 180.932 132.808 180.932C130.392 180.932 128.021 180.56 125.694 179.817C123.41 179.073 121.083 178.154 118.712 177.061C116.34 176.011 113.837 174.983 111.203 173.977C110.895 173.889 110.588 173.78 110.281 173.649C110.017 173.561 109.797 173.518 109.622 173.518C108.788 173.911 107.865 174.239 106.855 174.502C105.889 174.764 104.967 174.896 104.089 174.896C103.211 174.896 102.464 174.764 101.849 174.502C101.278 174.239 100.993 173.802 100.993 173.19C100.993 172.009 102.201 171.418 104.616 171.418C106.153 171.418 107.821 171.724 109.622 172.337C111.247 171.899 112.63 171.396 113.772 170.827C114.957 170.303 116.165 169.8 117.394 169.318C118.668 168.837 120.205 168.531 122.005 168.4L122.071 169.45C120.666 169.581 119.458 169.821 118.448 170.171C117.482 170.565 116.494 170.981 115.484 171.418C114.474 171.855 113.289 172.271 111.927 172.665C115.045 172.883 117.943 173.102 120.622 173.321C123.301 173.583 125.782 173.736 128.065 173.78C130.349 173.868 132.412 173.78 134.257 173.518C136.979 173.211 139.131 172.621 140.712 171.746C142.293 170.871 143.61 169.559 144.664 167.809ZM120.49 121.223C125.145 121.223 129.207 122.164 132.676 124.045C136.189 125.926 138.911 128.638 140.844 132.181C142.776 135.68 143.742 139.945 143.742 144.976C143.742 149.875 142.754 154.162 140.778 157.836C138.802 161.51 136.035 164.375 132.478 166.431C128.965 168.487 124.947 169.515 120.424 169.515C115.77 169.515 111.686 168.575 108.173 166.694C104.704 164.813 102.003 162.101 100.071 158.558C98.1387 155.015 97.1727 150.75 97.1727 145.763C97.1727 140.864 98.1607 136.577 100.137 132.903C102.157 129.228 104.901 126.363 108.37 124.307C111.883 122.251 115.923 121.223 120.49 121.223ZM120.227 122.404C117.768 122.404 115.616 123.389 113.772 125.357C111.971 127.325 110.566 130.038 109.556 133.493C108.59 136.949 108.107 140.951 108.107 145.501C108.107 150.137 108.656 154.183 109.754 157.639C110.895 161.051 112.41 163.697 114.299 165.578C116.231 167.416 118.36 168.334 120.688 168.334C123.147 168.334 125.277 167.35 127.077 165.382C128.921 163.413 130.327 160.701 131.293 157.245C132.303 153.746 132.808 149.744 132.808 145.238C132.808 140.558 132.237 136.511 131.095 133.1C129.997 129.688 128.482 127.063 126.55 125.226C124.662 123.345 122.554 122.404 120.227 122.404Z" fill="white"/>
  <path d="M180.956 133.952V161.445C180.956 163.413 181.263 164.878 181.878 165.841C182.493 166.759 183.59 167.219 185.171 167.219V168.597C183.81 168.465 182.449 168.4 181.087 168.4C179.243 168.4 177.53 168.465 175.95 168.597C174.369 168.728 172.876 168.968 171.47 169.318V163.413C170.417 165.6 168.946 167.175 167.057 168.137C165.213 169.056 163.149 169.515 160.866 169.515C159.021 169.515 157.528 169.275 156.387 168.793C155.245 168.312 154.345 167.7 153.686 166.956C152.939 166.125 152.412 165.032 152.105 163.676C151.798 162.32 151.644 160.57 151.644 158.426V141.826C151.644 139.858 151.337 138.414 150.722 137.496C150.151 136.533 149.053 136.052 147.428 136.052V134.674C148.834 134.805 150.195 134.871 151.512 134.871C153.357 134.871 155.069 134.805 156.65 134.674C158.275 134.499 159.768 134.259 161.129 133.952V161.117C161.129 162.21 161.217 163.173 161.393 164.004C161.612 164.835 162.007 165.491 162.578 165.972C163.149 166.409 163.983 166.628 165.081 166.628C166.838 166.628 168.331 165.906 169.56 164.463C170.834 162.976 171.47 161.16 171.47 159.017V141.826C171.47 139.858 171.163 138.414 170.548 137.496C169.977 136.533 168.88 136.052 167.255 136.052V134.674C168.66 134.805 170.021 134.871 171.339 134.871C173.183 134.871 174.896 134.805 176.477 134.674C178.101 134.499 179.594 134.259 180.956 133.952Z" fill="white"/>
  <path d="M196.662 117.746C198.506 117.746 199.955 118.205 201.009 119.124C202.107 119.999 202.656 121.223 202.656 122.798C202.656 124.373 202.107 125.62 201.009 126.538C199.955 127.413 198.506 127.85 196.662 127.85C194.817 127.85 193.346 127.413 192.248 126.538C191.195 125.62 190.668 124.373 190.668 122.798C190.668 121.223 191.195 119.999 192.248 119.124C193.346 118.205 194.817 117.746 196.662 117.746ZM201.799 133.952V162.494C201.799 164.332 202.107 165.578 202.722 166.234C203.38 166.891 204.478 167.219 206.015 167.219V168.597C205.225 168.553 203.995 168.509 202.326 168.465C200.658 168.378 198.967 168.334 197.254 168.334C195.542 168.334 193.807 168.378 192.051 168.465C190.294 168.509 188.977 168.553 188.099 168.597V167.219C189.636 167.219 190.712 166.891 191.326 166.234C191.985 165.578 192.314 164.332 192.314 162.494V141.826C192.314 139.858 192.007 138.414 191.392 137.496C190.821 136.533 189.723 136.052 188.099 136.052V134.674C189.504 134.805 190.865 134.871 192.183 134.871C194.027 134.871 195.739 134.805 197.32 134.674C198.945 134.499 200.438 134.259 201.799 133.952Z" fill="white"/>
  <path d="M222.313 117.221V162.494C222.313 164.332 222.62 165.578 223.235 166.234C223.894 166.891 224.992 167.219 226.528 167.219V168.597C225.694 168.553 224.443 168.509 222.774 168.465C221.105 168.378 219.415 168.334 217.702 168.334C215.989 168.334 214.255 168.378 212.498 168.465C210.786 168.509 209.49 168.553 208.612 168.597V167.219C210.149 167.219 211.225 166.891 211.84 166.234C212.498 165.578 212.828 164.332 212.828 162.494V125.095C212.828 123.126 212.52 121.683 211.906 120.764C211.335 119.802 210.237 119.321 208.612 119.321V117.943C210.017 118.074 211.379 118.14 212.696 118.14C214.496 118.14 216.209 118.074 217.834 117.943C219.459 117.768 220.952 117.527 222.313 117.221Z" fill="white"/>
  <path d="M242.702 123.914V134.674H250.475V135.987H242.702V162.494C242.702 163.807 242.944 164.747 243.427 165.316C243.91 165.841 244.634 166.103 245.601 166.103C246.391 166.103 247.181 165.819 247.972 165.25C248.762 164.638 249.465 163.61 250.08 162.166L251.199 162.757C250.497 164.725 249.421 166.344 247.972 167.612C246.567 168.881 244.634 169.515 242.175 169.515C240.726 169.515 239.453 169.318 238.355 168.925C237.257 168.575 236.335 168.028 235.589 167.284C234.622 166.322 233.986 165.141 233.678 163.741C233.371 162.298 233.217 160.439 233.217 158.164V135.987H227.684V134.674H233.217V126.013C235.062 126.013 236.752 125.86 238.289 125.554C239.87 125.204 241.341 124.657 242.702 123.914Z" fill="white"/>
  <path d="M185.575 180.232C187.253 180.232 188.667 180.473 189.815 180.954C190.963 181.392 191.891 182.004 192.597 182.792C193.392 183.623 193.945 184.739 194.254 186.139C194.563 187.496 194.717 189.224 194.717 191.324V208.915C194.717 210.753 195.071 212 195.777 212.656C196.484 213.313 197.677 213.641 199.355 213.641V215.019C198.604 214.975 197.434 214.932 195.844 214.888C194.298 214.8 192.774 214.757 191.272 214.757C189.771 214.757 188.291 214.8 186.834 214.888C185.42 214.932 184.338 214.975 183.588 215.019V213.641C185.045 213.641 186.061 213.313 186.635 212.656C187.253 212 187.562 210.753 187.562 208.915V189.487C187.562 188.218 187.474 187.08 187.297 186.074C187.121 185.023 186.701 184.192 186.039 183.579C185.42 182.923 184.427 182.595 183.058 182.595C181.512 182.595 180.12 183.054 178.884 183.973C177.691 184.892 176.72 186.161 175.969 187.78C175.262 189.355 174.909 191.128 174.909 193.097V208.915C174.909 210.753 175.218 212 175.836 212.656C176.455 213.313 177.47 213.641 178.884 213.641V215.019C178.177 214.975 177.117 214.932 175.704 214.888C174.29 214.8 172.833 214.757 171.331 214.757C169.83 214.757 168.262 214.8 166.628 214.888C164.993 214.932 163.779 214.975 162.984 215.019V213.641C164.706 213.641 165.921 213.313 166.628 212.656C167.378 212 167.754 210.753 167.754 208.915V188.305C167.754 186.336 167.423 184.892 166.76 183.973C166.098 183.011 164.839 182.529 162.984 182.529V181.151C164.397 181.282 165.766 181.348 167.091 181.348C168.593 181.348 169.984 181.282 171.265 181.151C172.59 180.976 173.805 180.735 174.909 180.429V187.583C176.057 184.958 177.581 183.076 179.48 181.938C181.423 180.801 183.455 180.232 185.575 180.232ZM205.516 180.232C207.195 180.232 208.608 180.473 209.756 180.954C210.905 181.392 211.832 182.004 212.539 182.792C213.334 183.623 213.886 184.739 214.195 186.139C214.504 187.496 214.659 189.224 214.659 191.324V208.915C214.659 210.753 215.012 212 215.719 212.656C216.47 213.313 217.706 213.641 219.429 213.641V215.019C218.678 214.975 217.507 214.932 215.917 214.888C214.327 214.8 212.76 214.757 211.214 214.757C209.712 214.757 208.232 214.8 206.775 214.888C205.362 214.932 204.28 214.975 203.529 215.019V213.641C204.986 213.641 206.002 213.313 206.576 212.656C207.195 212 207.504 210.753 207.504 208.915V189.487C207.504 188.218 207.415 187.08 207.239 186.074C207.062 185.023 206.642 184.192 205.98 183.579C205.317 182.923 204.28 182.595 202.866 182.595C200.57 182.595 198.626 183.623 197.036 185.68C195.49 187.693 194.717 190.187 194.717 193.162L194.452 187.714C195.645 184.826 197.235 182.857 199.222 181.807C201.254 180.757 203.352 180.232 205.516 180.232Z" fill="white"/>
  <path d="M238.612 180.232C242.498 180.232 245.546 181.392 247.754 183.711C249.962 186.03 251.067 189.705 251.067 194.738H228.21L228.078 193.49H244.044C244.088 191.346 243.912 189.377 243.514 187.583C243.117 185.745 242.498 184.28 241.659 183.186C240.82 182.092 239.716 181.545 238.347 181.545C236.447 181.545 234.791 182.551 233.378 184.564C232.009 186.533 231.17 189.705 230.86 194.081L231.059 194.409C231.015 195.022 230.971 195.7 230.927 196.444C230.882 197.144 230.86 197.844 230.86 198.544C230.86 201.564 231.324 204.102 232.252 206.158C233.179 208.215 234.394 209.768 235.895 210.818C237.397 211.825 238.921 212.328 240.467 212.328C242.233 212.328 243.934 211.891 245.568 211.015C247.246 210.14 248.682 208.521 249.874 206.158L251.199 206.683C250.669 208.171 249.852 209.637 248.748 211.081C247.644 212.525 246.23 213.706 244.508 214.625C242.785 215.501 240.776 215.938 238.479 215.938C235.387 215.938 232.693 215.26 230.397 213.903C228.1 212.503 226.333 210.512 225.097 207.93C223.86 205.349 223.242 202.286 223.242 198.741C223.242 194.847 223.882 191.521 225.163 188.765C226.444 186.008 228.232 183.908 230.529 182.464C232.87 180.976 235.564 180.232 238.612 180.232Z" fill="white"/>
  <path d="M272.388 199.88L267.473 213.838H264.501L270.693 197.735H272.591L272.388 199.88ZM276.501 213.838L271.574 199.88L271.36 197.735H273.269L279.484 213.838H276.501ZM276.264 207.865V210.066H267.315V207.865H276.264Z" fill="white"/>
  <path d="M286.205 197.735V213.838H283.369V197.735H286.205Z" fill="white"/>
  <path d="M256.574 208.546C257.689 210.846 259.533 212.712 261.819 213.855L261.948 213.92C259.586 215.031 257.686 216.932 256.574 219.294C255.732 216.964 253.957 215.089 251.676 214.122L251.2 213.92C253.507 212.731 255.386 210.853 256.574 208.546Z" fill="#FFFAFB"/>
</svg>
