<svg width="113" height="61" viewBox="0 0 113 61" fill="none" xmlns="http://www.w3.org/2000/svg">
<path d="M28.3814 30.2321L29.0899 30.4282C28.88 31.8659 28.5519 33.0946 28.1058 34.1141C27.6597 35.1597 27.0824 35.9701 26.3738 36.5452C25.8227 36.9896 25.101 37.3556 24.2088 37.6431C23.3428 37.9307 22.3718 38.0745 21.2959 38.0745C19.8525 38.0745 18.4354 37.8523 17.0446 37.4079C15.6799 36.9635 14.2891 36.4145 12.872 35.761C11.4549 35.1336 9.95906 34.5193 8.38451 33.918C8.20081 33.8657 8.01711 33.8004 7.83341 33.722C7.67596 33.6697 7.54474 33.6435 7.43977 33.6435C6.94117 33.8788 6.39007 34.0749 5.78649 34.2317C5.20915 34.3886 4.65806 34.467 4.13321 34.467C3.60836 34.467 3.16223 34.3886 2.79484 34.2317C2.45368 34.0749 2.28311 33.8135 2.28311 33.4475C2.28311 32.7417 3.00478 32.3888 4.44812 32.3888C5.36661 32.3888 6.36383 32.5718 7.43977 32.9377C8.41075 32.6763 9.23739 32.3757 9.9197 32.0359C10.6282 31.7222 11.3499 31.4216 12.0847 31.134C12.8457 30.8464 13.7642 30.6635 14.8402 30.585L14.8795 31.2124C14.0398 31.2908 13.3181 31.4346 12.7145 31.6437C12.1372 31.879 11.5467 32.1274 10.9432 32.3888C10.3396 32.6502 9.63103 32.8985 8.81751 33.1338C10.6807 33.2645 12.4127 33.3952 14.0135 33.5259C15.6143 33.6828 17.097 33.7742 18.4617 33.8004C19.8263 33.8527 21.0597 33.8004 22.1619 33.6435C23.7889 33.4606 25.0748 33.1076 26.0195 32.5848C26.9643 32.062 27.7515 31.2778 28.3814 30.2321ZM13.9348 2.39191C16.7165 2.39191 19.144 2.95394 21.2171 4.07801C23.3165 5.20207 24.9436 6.82282 26.0983 8.94024C27.2529 11.0315 27.8303 13.5803 27.8303 16.5865C27.8303 19.5143 27.2398 22.0761 26.0589 24.272C24.878 26.4678 23.2247 28.1801 21.099 29.4087C18.9996 30.6373 16.5984 31.2516 13.8955 31.2516C11.1137 31.2516 8.67318 30.6896 6.57377 29.5655C4.5006 28.4415 2.88669 26.8207 1.73201 24.7033C0.577337 22.5859 0 20.0371 0 17.057C0 14.1292 0.590458 11.5674 1.77137 9.37157C2.97853 7.17572 4.6187 5.46348 6.69186 4.23485C8.79127 3.00622 11.2056 2.39191 13.9348 2.39191ZM13.7774 3.09771C12.3078 3.09771 11.0219 3.68589 9.9197 4.86224C8.84375 6.03858 8.00399 7.65933 7.40041 9.72447C6.82307 11.7896 6.53441 14.1815 6.53441 16.9002C6.53441 19.6711 6.86244 22.0892 7.5185 24.1543C8.20081 26.1933 9.10618 27.7749 10.2346 28.8989C11.3893 29.9969 12.662 30.5458 14.0529 30.5458C15.5225 30.5458 16.7953 29.9576 17.8712 28.7813C18.9734 27.605 19.8132 25.9842 20.3905 23.9191C20.9941 21.8278 21.2959 19.4359 21.2959 16.7433C21.2959 13.9463 20.9547 11.5282 20.2724 9.48921C19.6163 7.4502 18.711 5.88174 17.5563 4.78381C16.4279 3.65975 15.1682 3.09771 13.7774 3.09771Z" fill="#EA0B3F"/>
<path d="M50.0696 9.99895V26.4286C50.0696 27.605 50.2533 28.4807 50.6207 29.0558C50.9881 29.6047 51.6442 29.8792 52.5889 29.8792V30.7027C51.7754 30.6242 50.9619 30.585 50.1484 30.585C49.0462 30.585 48.0227 30.6242 47.078 30.7027C46.1332 30.7811 45.241 30.9249 44.4012 31.134V27.605C43.7714 28.912 42.8923 29.8531 41.7639 30.4282C40.6617 30.9772 39.4283 31.2516 38.0636 31.2516C36.9615 31.2516 36.0692 31.1079 35.3869 30.8203C34.7046 30.5328 34.1666 30.1668 33.773 29.7224C33.3269 29.2257 33.0119 28.5722 32.8282 27.7618C32.6445 26.9514 32.5527 25.9058 32.5527 24.6249V14.7043C32.5527 13.528 32.369 12.6653 32.0016 12.1164C31.6605 11.5413 31.0044 11.2537 30.0334 11.2537V10.4303C30.8732 10.5087 31.6867 10.5479 32.474 10.5479C33.5762 10.5479 34.5996 10.5087 35.5444 10.4303C36.5153 10.3257 37.4076 10.1819 38.2211 9.99895V26.2326C38.2211 26.8861 38.2736 27.4612 38.3786 27.9579C38.5098 28.4545 38.746 28.8467 39.0871 29.1342C39.4283 29.3956 39.9269 29.5263 40.5829 29.5263C41.6326 29.5263 42.5249 29.095 43.2597 28.2323C44.0207 27.3435 44.4012 26.2587 44.4012 24.9778V14.7043C44.4012 13.528 44.2175 12.6653 43.8501 12.1164C43.509 11.5413 42.8529 11.2537 41.8819 11.2537V10.4303C42.7217 10.5087 43.5352 10.5479 44.3225 10.5479C45.4247 10.5479 46.4482 10.5087 47.3929 10.4303C48.3639 10.3257 49.2561 10.1819 50.0696 9.99895Z" fill="#EA0B3F"/>
<path d="M59.4558 0.313694C60.558 0.313694 61.424 0.588175 62.0538 1.13714C62.7098 1.65996 63.0379 2.39191 63.0379 3.33299C63.0379 4.27406 62.7098 5.01908 62.0538 5.56805C61.424 6.09087 60.558 6.35228 59.4558 6.35228C58.3536 6.35228 57.4745 6.09087 56.8184 5.56805C56.1886 5.01908 55.8737 4.27406 55.8737 3.33299C55.8737 2.39191 56.1886 1.65996 56.8184 1.13714C57.4745 0.588175 58.3536 0.313694 59.4558 0.313694ZM62.5261 9.99895V27.056C62.5261 28.1539 62.7098 28.8989 63.0772 29.2911C63.4709 29.6832 64.1269 29.8792 65.0454 29.8792V30.7027C64.5731 30.6765 63.8383 30.6504 62.8411 30.6242C61.8438 30.572 60.8335 30.5458 59.81 30.5458C58.7866 30.5458 57.75 30.572 56.7003 30.6242C55.6506 30.6504 54.8633 30.6765 54.3385 30.7027V29.8792C55.257 29.8792 55.8999 29.6832 56.2673 29.2911C56.6609 28.8989 56.8578 28.1539 56.8578 27.056V14.7043C56.8578 13.528 56.674 12.6653 56.3067 12.1164C55.9655 11.5413 55.3094 11.2537 54.3385 11.2537V10.4303C55.1782 10.5087 55.9917 10.5479 56.779 10.5479C57.8812 10.5479 58.9047 10.5087 59.8494 10.4303C60.8204 10.3257 61.7126 10.1819 62.5261 9.99895Z" fill="#EA0B3F"/>
<path d="M74.7852 0V27.056C74.7852 28.1539 74.9689 28.8989 75.3363 29.2911C75.73 29.6832 76.386 29.8792 77.3045 29.8792V30.7027C76.8059 30.6765 76.058 30.6504 75.0608 30.6242C74.0636 30.572 73.0532 30.5458 72.0298 30.5458C71.0063 30.5458 69.9697 30.572 68.92 30.6242C67.8966 30.6504 67.1224 30.6765 66.5975 30.7027V29.8792C67.516 29.8792 68.159 29.6832 68.5264 29.2911C68.92 28.8989 69.1168 28.1539 69.1168 27.056V4.70539C69.1168 3.52904 68.9331 2.66639 68.5657 2.11743C68.2246 1.54232 67.5685 1.25477 66.5975 1.25477V0.431329C67.4373 0.509751 68.2508 0.548962 69.0381 0.548962C70.114 0.548962 71.1375 0.509751 72.1085 0.431329C73.0795 0.326765 73.9717 0.182988 74.7852 0Z" fill="#EA0B3F"/>
<path d="M86.9702 3.99958V10.4303H91.6151V11.2145H86.9702V27.056C86.9702 27.8402 87.1145 28.4023 87.4032 28.7421C87.6919 29.0558 88.1249 29.2126 88.7022 29.2126C89.1746 29.2126 89.6469 29.0427 90.1193 28.7029C90.5917 28.3369 91.0116 27.7226 91.379 26.8599L92.0481 27.2128C91.6283 28.3892 90.9853 29.3564 90.1193 30.1145C89.2795 30.8726 88.1249 31.2516 86.6553 31.2516C85.7893 31.2516 85.0283 31.134 84.3722 30.8987C83.7161 30.6896 83.165 30.3628 82.7189 29.9184C82.1416 29.3433 81.761 28.6375 81.5773 27.801C81.3936 26.9384 81.3018 25.8274 81.3018 24.468V11.2145H77.9952V10.4303H81.3018V5.25435C82.404 5.25435 83.4143 5.16286 84.3328 4.97987C85.2776 4.77074 86.1567 4.44398 86.9702 3.99958Z" fill="#EA0B3F"/>
<path d="M52.8308 37.6562C53.8338 37.6562 54.6784 37.8001 55.3647 38.0877C56.051 38.3492 56.6052 38.7153 57.0276 39.186C57.5027 39.6829 57.8326 40.3497 58.0173 41.1865C58.2021 41.9972 58.2945 43.0301 58.2945 44.2853V54.7976C58.2945 55.8959 58.5056 56.6412 58.928 57.0334C59.3503 57.4257 60.0629 57.6218 61.0659 57.6218V58.4455C60.6172 58.4194 59.9177 58.3932 58.9675 58.3671C58.0437 58.3148 57.1331 58.2886 56.2357 58.2886C55.3383 58.2886 54.4541 58.3148 53.5831 58.3671C52.7385 58.3932 52.0918 58.4194 51.6431 58.4455V57.6218C52.5141 57.6218 53.1212 57.4257 53.4643 57.0334C53.8338 56.6412 54.0186 55.8959 54.0186 54.7976V43.187C54.0186 42.4286 53.9658 41.7487 53.8602 41.1473C53.7546 40.5197 53.5039 40.0228 53.108 39.6567C52.7385 39.2645 52.1446 39.0684 51.3264 39.0684C50.4025 39.0684 49.5711 39.3429 48.8321 39.8921C48.1194 40.4412 47.5388 41.1996 47.09 42.1671C46.6677 43.1085 46.4566 44.1676 46.4566 45.3444V54.7976C46.4566 55.8959 46.6413 56.6412 47.0109 57.0334C47.3804 57.4257 47.9875 57.6218 48.8321 57.6218V58.4455C48.4098 58.4194 47.7763 58.3932 46.9317 58.3671C46.0871 58.3148 45.216 58.2886 44.3186 58.2886C43.4212 58.2886 42.4842 58.3148 41.5076 58.3671C40.531 58.3932 39.8052 58.4194 39.3301 58.4455V57.6218C40.3595 57.6218 41.0853 57.4257 41.5076 57.0334C41.9563 56.6412 42.1807 55.8959 42.1807 54.7976V42.4809C42.1807 41.3042 41.9827 40.4412 41.5868 39.8921C41.1909 39.3168 40.4386 39.0291 39.3301 39.0291V38.2054C40.1747 38.2839 40.9929 38.3231 41.7848 38.3231C42.6822 38.3231 43.5136 38.2839 44.279 38.2054C45.0709 38.1008 45.7967 37.957 46.4566 37.7739V42.0495C47.1428 40.4805 48.0534 39.356 49.1884 38.6761C50.3498 37.9962 51.5639 37.6562 52.8308 37.6562ZM64.7479 37.6562C65.7509 37.6562 66.5955 37.8001 67.2818 38.0877C67.9681 38.3492 68.5223 38.7153 68.9446 39.186C69.4197 39.6829 69.7497 40.3497 69.9344 41.1865C70.1192 41.9972 70.2116 43.0301 70.2116 44.2853V54.7976C70.2116 55.8959 70.4227 56.6412 70.845 57.0334C71.2938 57.4257 72.0328 57.6218 73.0622 57.6218V58.4455C72.6135 58.4194 71.914 58.3932 70.9638 58.3671C70.0136 58.3148 69.0766 58.2886 68.1528 58.2886C67.2554 58.2886 66.3712 58.3148 65.5002 58.3671C64.6556 58.3932 64.0089 58.4194 63.5602 58.4455V57.6218C64.4312 57.6218 65.0383 57.4257 65.3814 57.0334C65.7509 56.6412 65.9357 55.8959 65.9357 54.7976V43.187C65.9357 42.4286 65.8829 41.7487 65.7773 41.1473C65.6717 40.5197 65.421 40.0228 65.0251 39.6567C64.6292 39.2645 64.0089 39.0684 63.1643 39.0684C61.7918 39.0684 60.6304 39.6829 59.6802 40.9119C58.7564 42.1148 58.2945 43.6054 58.2945 45.3836L58.1361 42.1279C58.8488 40.402 59.799 39.2253 60.9867 38.5977C62.2009 37.9701 63.4546 37.6562 64.7479 37.6562Z" fill="#EA0B3F"/>
<path d="M84.5261 37.6562C86.8488 37.6562 88.6701 38.3492 89.9898 39.7352C91.3095 41.1211 91.9694 43.3177 91.9694 46.325H78.3102L78.2311 45.5797H87.7727C87.799 44.2984 87.6935 43.1216 87.4559 42.0495C87.2184 40.9512 86.8488 40.0751 86.3473 39.4214C85.8459 38.7676 85.186 38.4408 84.3678 38.4408C83.2328 38.4408 82.243 39.0422 81.3984 40.2451C80.5802 41.4219 80.0787 43.3177 79.8939 45.9327L80.0127 46.1289C79.9863 46.495 79.9599 46.9003 79.9335 47.3448C79.9071 47.7632 79.8939 48.1816 79.8939 48.6C79.8939 50.4044 80.1711 51.9211 80.7253 53.1501C81.2796 54.3792 82.0055 55.3075 82.9029 55.9351C83.8003 56.5366 84.7109 56.8373 85.6347 56.8373C86.6905 56.8373 87.7067 56.5758 88.6833 56.0528C89.6863 55.5298 90.5441 54.5623 91.2567 53.1501L92.0486 53.4639C91.7318 54.353 91.2435 55.2291 90.5837 56.092C89.9238 56.955 89.0792 57.661 88.0498 58.2102C87.0204 58.7332 85.8195 58.9947 84.447 58.9947C82.5993 58.9947 80.9893 58.5894 79.6168 57.7787C78.2443 56.9419 77.1885 55.7521 76.4494 54.2092C75.7104 52.6664 75.3409 50.8359 75.3409 48.7177C75.3409 46.3904 75.7236 44.403 76.489 42.7555C77.2545 41.1081 78.3234 39.8529 79.6959 38.9899C81.0949 38.1008 82.7049 37.6562 84.5261 37.6562Z" fill="#EA0B3F"/>
<path d="M104.711 49.3984L101.774 57.7394H99.998L103.698 48.1162H104.833L104.711 49.3984ZM107.169 57.7394L104.225 49.3984L104.097 48.1162H105.238L108.952 57.7394H107.169ZM107.027 54.1704V55.4856H101.679V54.1704H107.027Z" fill="#EA0B3F"/>
<path d="M112.968 48.1162V57.7394H111.274V48.1162H112.968Z" fill="#EA0B3F"/>
<path d="M95.2598 54.5771L-nan -nanL95.2598 54.5771C95.926 55.9515 97.028 57.0671 98.3941 57.7501L98.4714 57.7888L-nan -nanL98.4714 57.7888C97.0597 58.4529 95.9239 59.5887 95.2598 61.0004L-nan -nanL95.2598 61.0004L-nan -nanL95.2598 61.0004C94.7565 59.6077 93.6958 58.4877 92.3325 57.9094L92.0481 57.7888L-nan -nanL92.0481 57.7888C93.4268 57.0785 94.5495 55.9558 95.2598 54.5771L-nan -nanL95.2598 54.5771Z" fill="#EA0B3F"/>
</svg>
