<svg width="113" height="61" viewBox="0 0 113 61" fill="none" xmlns="http://www.w3.org/2000/svg">
<path d="M28.4126 30.2321L29.1212 30.4282C28.9112 31.8659 28.5832 33.0946 28.1371 34.1141C27.6909 35.1597 27.1136 35.9701 26.4051 36.5452C25.854 36.9896 25.1323 37.3556 24.24 37.6431C23.374 37.9307 22.4031 38.0745 21.3271 38.0745C19.8838 38.0745 18.4667 37.8523 17.0758 37.4079C15.7112 36.9635 14.3203 36.4145 12.9032 35.761C11.4861 35.1336 9.99031 34.5193 8.41576 33.918C8.23206 33.8657 8.04836 33.8004 7.86466 33.722C7.70721 33.6697 7.57599 33.6435 7.47102 33.6435C6.97242 33.8788 6.42132 34.0749 5.81774 34.2317C5.2404 34.3886 4.68931 34.467 4.16446 34.467C3.63961 34.467 3.19348 34.3886 2.82609 34.2317C2.48493 34.0749 2.31436 33.8135 2.31436 33.4475C2.31436 32.7417 3.03603 32.3888 4.47937 32.3888C5.39786 32.3888 6.39508 32.5718 7.47102 32.9377C8.442 32.6763 9.26864 32.3757 9.95095 32.0359C10.6595 31.7222 11.3812 31.4216 12.116 31.134C12.877 30.8464 13.7955 30.6635 14.8714 30.585L14.9108 31.2124C14.071 31.2908 13.3494 31.4346 12.7458 31.6437C12.1684 31.879 11.578 32.1274 10.9744 32.3888C10.3708 32.6502 9.66228 32.8985 8.84876 33.1338C10.712 33.2645 12.444 33.3952 14.0448 33.5259C15.6456 33.6828 17.1283 33.7742 18.4929 33.8004C19.8575 33.8527 21.0909 33.8004 22.1931 33.6435C23.8202 33.4606 25.106 33.1076 26.0508 32.5848C26.9955 32.062 27.7828 31.2778 28.4126 30.2321ZM13.9661 2.39191C16.7478 2.39191 19.1752 2.95394 21.2484 4.07801C23.3478 5.20207 24.9748 6.82282 26.1295 8.94024C27.2842 11.0315 27.8615 13.5803 27.8615 16.5865C27.8615 19.5143 27.2711 22.0761 26.0901 24.272C24.9092 26.4678 23.2559 28.1801 21.1303 29.4087C19.0309 30.6373 16.6297 31.2516 13.9267 31.2516C11.145 31.2516 8.70443 30.6896 6.60502 29.5655C4.53185 28.4415 2.91794 26.8207 1.76326 24.7033C0.608587 22.5859 0.03125 20.0371 0.03125 17.057C0.03125 14.1292 0.621708 11.5674 1.80262 9.37157C3.00978 7.17572 4.64995 5.46348 6.72311 4.23485C8.82252 3.00622 11.2368 2.39191 13.9661 2.39191ZM13.8086 3.09771C12.339 3.09771 11.0531 3.68589 9.95095 4.86224C8.875 6.03858 8.03524 7.65933 7.43166 9.72447C6.85432 11.7896 6.56566 14.1815 6.56566 16.9002C6.56566 19.6711 6.89369 22.0892 7.54975 24.1543C8.23206 26.1933 9.13743 27.7749 10.2659 28.8989C11.4205 29.9969 12.6933 30.5458 14.0842 30.5458C15.5537 30.5458 16.8265 29.9576 17.9025 28.7813C19.0046 27.605 19.8444 25.9842 20.4217 23.9191C21.0253 21.8278 21.3271 19.4359 21.3271 16.7433C21.3271 13.9463 20.986 11.5282 20.3036 9.48921C19.6476 7.4502 18.7422 5.88174 17.5875 4.78381C16.4591 3.65975 15.1995 3.09771 13.8086 3.09771Z" fill="#EA0B3F"/>
<path d="M50.1009 9.99895V26.4286C50.1009 27.605 50.2846 28.4807 50.652 29.0558C51.0194 29.6047 51.6754 29.8792 52.6202 29.8792V30.7027C51.8066 30.6242 50.9931 30.585 50.1796 30.585C49.0774 30.585 48.054 30.6242 47.1092 30.7027C46.1645 30.7811 45.2722 30.9249 44.4325 31.134V27.605C43.8027 28.912 42.9235 29.8531 41.7951 30.4282C40.6929 30.9772 39.4595 31.2516 38.0949 31.2516C36.9927 31.2516 36.1005 31.1079 35.4181 30.8203C34.7358 30.5328 34.1979 30.1668 33.8042 29.7224C33.3581 29.2257 33.0432 28.5722 32.8595 27.7618C32.6758 26.9514 32.584 25.9058 32.584 24.6249V14.7043C32.584 13.528 32.4003 12.6653 32.0329 12.1164C31.6917 11.5413 31.0356 11.2537 30.0647 11.2537V10.4303C30.9044 10.5087 31.7179 10.5479 32.5052 10.5479C33.6074 10.5479 34.6309 10.5087 35.5756 10.4303C36.5466 10.3257 37.4388 10.1819 38.2524 9.99895V26.2326C38.2524 26.8861 38.3048 27.4612 38.4098 27.9579C38.541 28.4545 38.7772 28.8467 39.1184 29.1342C39.4595 29.3956 39.9581 29.5263 40.6142 29.5263C41.6639 29.5263 42.5561 29.095 43.2909 28.2323C44.052 27.3435 44.4325 26.2587 44.4325 24.9778V14.7043C44.4325 13.528 44.2488 12.6653 43.8814 12.1164C43.5402 11.5413 42.8842 11.2537 41.9132 11.2537V10.4303C42.753 10.5087 43.5665 10.5479 44.3538 10.5479C45.4559 10.5479 46.4794 10.5087 47.4241 10.4303C48.3951 10.3257 49.2874 10.1819 50.1009 9.99895Z" fill="#EA0B3F"/>
<path d="M59.487 0.313694C60.5892 0.313694 61.4552 0.588175 62.085 1.13714C62.7411 1.65996 63.0691 2.39191 63.0691 3.33299C63.0691 4.27406 62.7411 5.01908 62.085 5.56805C61.4552 6.09087 60.5892 6.35228 59.487 6.35228C58.3848 6.35228 57.5057 6.09087 56.8496 5.56805C56.2198 5.01908 55.9049 4.27406 55.9049 3.33299C55.9049 2.39191 56.2198 1.65996 56.8496 1.13714C57.5057 0.588175 58.3848 0.313694 59.487 0.313694ZM62.5574 9.99895V27.056C62.5574 28.1539 62.7411 28.8989 63.1085 29.2911C63.5021 29.6832 64.1582 29.8792 65.0767 29.8792V30.7027C64.6043 30.6765 63.8695 30.6504 62.8723 30.6242C61.8751 30.572 60.8648 30.5458 59.8413 30.5458C58.8178 30.5458 57.7812 30.572 56.7315 30.6242C55.6818 30.6504 54.8946 30.6765 54.3697 30.7027V29.8792C55.2882 29.8792 55.9311 29.6832 56.2985 29.2911C56.6922 28.8989 56.889 28.1539 56.889 27.056V14.7043C56.889 13.528 56.7053 12.6653 56.3379 12.1164C55.9967 11.5413 55.3407 11.2537 54.3697 11.2537V10.4303C55.2095 10.5087 56.023 10.5479 56.8103 10.5479C57.9125 10.5479 58.9359 10.5087 59.8807 10.4303C60.8516 10.3257 61.7439 10.1819 62.5574 9.99895Z" fill="#EA0B3F"/>
<path d="M74.8165 0V27.056C74.8165 28.1539 75.0002 28.8989 75.3676 29.2911C75.7612 29.6832 76.4173 29.8792 77.3358 29.8792V30.7027C76.8372 30.6765 76.0892 30.6504 75.092 30.6242C74.0948 30.572 73.0845 30.5458 72.061 30.5458C71.0375 30.5458 70.001 30.572 68.9513 30.6242C67.9278 30.6504 67.1536 30.6765 66.6288 30.7027V29.8792C67.5473 29.8792 68.1902 29.6832 68.5576 29.2911C68.9513 28.8989 69.1481 28.1539 69.1481 27.056V4.70539C69.1481 3.52904 68.9644 2.66639 68.597 2.11743C68.2558 1.54232 67.5998 1.25477 66.6288 1.25477V0.431329C67.4686 0.509751 68.2821 0.548962 69.0694 0.548962C70.1453 0.548962 71.1688 0.509751 72.1397 0.431329C73.1107 0.326765 74.003 0.182988 74.8165 0Z" fill="#EA0B3F"/>
<path d="M87.0014 3.99958V10.4303H91.6464V11.2145H87.0014V27.056C87.0014 27.8402 87.1458 28.4023 87.4345 28.7421C87.7231 29.0558 88.1561 29.2126 88.7335 29.2126C89.2058 29.2126 89.6782 29.0427 90.1506 28.7029C90.6229 28.3369 91.0428 27.7226 91.4102 26.8599L92.0794 27.2128C91.6595 28.3892 91.0166 29.3564 90.1506 30.1145C89.3108 30.8726 88.1561 31.2516 86.6865 31.2516C85.8205 31.2516 85.0595 31.134 84.4034 30.8987C83.7474 30.6896 83.1963 30.3628 82.7501 29.9184C82.1728 29.3433 81.7923 28.6375 81.6086 27.801C81.4249 26.9384 81.3331 25.8274 81.3331 24.468V11.2145H78.0265V10.4303H81.3331V5.25435C82.4352 5.25435 83.4456 5.16286 84.3641 4.97987C85.3088 4.77074 86.1879 4.44398 87.0014 3.99958Z" fill="#EA0B3F"/>
<path d="M52.8621 37.6562C53.8651 37.6562 54.7097 37.8001 55.396 38.0877C56.0822 38.3492 56.6365 38.7153 57.0588 39.186C57.5339 39.6829 57.8638 40.3497 58.0486 41.1865C58.2334 41.9972 58.3257 43.0301 58.3257 44.2853V54.7976C58.3257 55.8959 58.5369 56.6412 58.9592 57.0334C59.3815 57.4257 60.0942 57.6218 61.0972 57.6218V58.4455C60.6485 58.4194 59.949 58.3932 58.9988 58.3671C58.075 58.3148 57.1644 58.2886 56.267 58.2886C55.3696 58.2886 54.4853 58.3148 53.6143 58.3671C52.7697 58.3932 52.123 58.4194 51.6743 58.4455V57.6218C52.5454 57.6218 53.1524 57.4257 53.4956 57.0334C53.8651 56.6412 54.0498 55.8959 54.0498 54.7976V43.187C54.0498 42.4286 53.9971 41.7487 53.8915 41.1473C53.7859 40.5197 53.5351 40.0228 53.1392 39.6567C52.7697 39.2645 52.1758 39.0684 51.3576 39.0684C50.4338 39.0684 49.6024 39.3429 48.8633 39.8921C48.1507 40.4412 47.57 41.1996 47.1213 42.1671C46.699 43.1085 46.4878 44.1676 46.4878 45.3444V54.7976C46.4878 55.8959 46.6726 56.6412 47.0421 57.0334C47.4116 57.4257 48.0187 57.6218 48.8633 57.6218V58.4455C48.441 58.4194 47.8076 58.3932 46.9629 58.3671C46.1183 58.3148 45.2473 58.2886 44.3499 58.2886C43.4525 58.2886 42.5155 58.3148 41.5389 58.3671C40.5623 58.3932 39.8364 58.4194 39.3613 58.4455V57.6218C40.3907 57.6218 41.1166 57.4257 41.5389 57.0334C41.9876 56.6412 42.2119 55.8959 42.2119 54.7976V42.4809C42.2119 41.3042 42.014 40.4412 41.6181 39.8921C41.2221 39.3168 40.4699 39.0291 39.3613 39.0291V38.2054C40.206 38.2839 41.0242 38.3231 41.816 38.3231C42.7134 38.3231 43.5448 38.2839 44.3103 38.2054C45.1021 38.1008 45.828 37.957 46.4878 37.7739V42.0495C47.1741 40.4805 48.0847 39.356 49.2197 38.6761C50.381 37.9962 51.5952 37.6562 52.8621 37.6562ZM64.7792 37.6562C65.7822 37.6562 66.6268 37.8001 67.313 38.0877C67.9993 38.3492 68.5536 38.7153 68.9759 39.186C69.451 39.6829 69.7809 40.3497 69.9657 41.1865C70.1505 41.9972 70.2428 43.0301 70.2428 44.2853V54.7976C70.2428 55.8959 70.454 56.6412 70.8763 57.0334C71.325 57.4257 72.0641 57.6218 73.0934 57.6218V58.4455C72.6447 58.4194 71.9453 58.3932 70.9951 58.3671C70.0449 58.3148 69.1079 58.2886 68.1841 58.2886C67.2867 58.2886 66.4024 58.3148 65.5314 58.3671C64.6868 58.3932 64.0401 58.4194 63.5914 58.4455V57.6218C64.4624 57.6218 65.0695 57.4257 65.4126 57.0334C65.7822 56.6412 65.9669 55.8959 65.9669 54.7976V43.187C65.9669 42.4286 65.9141 41.7487 65.8086 41.1473C65.703 40.5197 65.4522 40.0228 65.0563 39.6567C64.6604 39.2645 64.0401 39.0684 63.1955 39.0684C61.823 39.0684 60.6616 39.6829 59.7114 40.9119C58.7876 42.1148 58.3257 43.6054 58.3257 45.3836L58.1674 42.1279C58.88 40.402 59.8302 39.2253 61.018 38.5977C62.2321 37.9701 63.4859 37.6562 64.7792 37.6562Z" fill="#EA0B3F"/>
<path d="M84.5574 37.6562C86.8801 37.6562 88.7013 38.3492 90.021 39.7352C91.3408 41.1211 92.0006 43.3177 92.0006 46.325H78.3415L78.2623 45.5797H87.8039C87.8303 44.2984 87.7247 43.1216 87.4872 42.0495C87.2496 40.9512 86.8801 40.0751 86.3786 39.4214C85.8771 38.7676 85.2172 38.4408 84.399 38.4408C83.2641 38.4408 82.2743 39.0422 81.4296 40.2451C80.6114 41.4219 80.1099 43.3177 79.9252 45.9327L80.0439 46.1289C80.0175 46.495 79.9911 46.9003 79.9648 47.3448C79.9384 47.7632 79.9252 48.1816 79.9252 48.6C79.9252 50.4044 80.2023 51.9211 80.7566 53.1501C81.3109 54.3792 82.0367 55.3075 82.9341 55.9351C83.8315 56.5366 84.7422 56.8373 85.666 56.8373C86.7217 56.8373 87.7379 56.5758 88.7145 56.0528C89.7175 55.5298 90.5753 54.5623 91.288 53.1501L92.0798 53.4639C91.7631 54.353 91.2748 55.2291 90.6149 56.092C89.9551 56.955 89.1104 57.661 88.081 58.2102C87.0517 58.7332 85.8507 58.9947 84.4782 58.9947C82.6306 58.9947 81.0205 58.5894 79.648 57.7787C78.2755 56.9419 77.2197 55.7521 76.4807 54.2092C75.7416 52.6664 75.3721 50.8359 75.3721 48.7177C75.3721 46.3904 75.7548 44.403 76.5203 42.7555C77.2857 41.1081 78.3547 39.8529 79.7272 38.9899C81.1261 38.1008 82.7362 37.6562 84.5574 37.6562Z" fill="#EA0B3F"/>
<path d="M104.743 49.3984L101.805 57.7394H100.029L103.73 48.1162H104.864L104.743 49.3984ZM107.2 57.7394L104.256 49.3984L104.128 48.1162H105.269L108.983 57.7394H107.2ZM107.059 54.1704V55.4856H101.711V54.1704H107.059Z" fill="#EA0B3F"/>
<path d="M113 48.1162V57.7394H111.305V48.1162H113Z" fill="#EA0B3F"/>
<path d="M95.291 54.5767L-nan -nanL95.291 54.5767C95.9573 55.951 97.0592 57.0666 98.4253 57.7496L98.5026 57.7883L-nan -nanL98.5026 57.7883C97.0909 58.4524 95.9551 59.5882 95.291 60.9999L-nan -nanL95.291 60.9999L-nan -nanL95.291 60.9999C94.7878 59.6072 93.727 58.4872 92.3638 57.9089L92.0794 57.7883L-nan -nanL92.0794 57.7883C93.458 57.078 94.5807 55.9553 95.291 54.5767L-nan -nanL95.291 54.5767Z" fill="#EA0B3F"/>
</svg>
